#!OML:ASF H:\ManfredObstacles\Project 1\Capture day 1\Session 1\Male.ASF
:FULLY-SPECIFIED
:DEGREES
481
root -15.2683 16.4986 4.52825 40.1377 -80.8815 -389.981
lowerback -11.7198 -1.82252 0.606931
upperback 1.19967 -2.7309 2.38898
thorax 7.95592 -1.37026 1.68804
lowerneck -2.97499 0.385599 -4.86119
upperneck -4.14414 0.761649 9.27571
head -0.862069 0.343822 3.89474
rclavicle 1.54462e-014 2.35063e-014
rhumerus -38.8548 -30.228 -68.2819
rradius 23.3715
rwrist 37.4974
rhand 0.494161 -5.10259
rfingers 7.12502
rthumb 26.0636 -33.3345
lclavicle 1.54462e-014 2.35063e-014
lhumerus -23.9463 8.23951 89.8852
lradius 18.7135
lwrist -28.8257
lhand -7.36235 9.90362
lfingers 7.12502
lthumb 18.5223 39.0418
rfemur -30.6483 -5.52969 24.437
rtibia 30.0302
rfoot -10.9326 10.9294
rtoes 10.249
lfemur 5.90658 -4.06565 -15.3676
ltibia 3.49861e-014
lfoot -4.29098 -11.9765
ltoes 5.34658
482
root -15.2679 16.4987 4.53092 39.8509 -80.955 -389.783
lowerback -11.7189 -1.81931 0.53831
upperback 1.26568 -2.71832 2.39235
thorax 8.0296 -1.36709 1.73206
lowerneck -2.96636 0.39424 -4.98702
upperneck -4.22426 0.781337 9.31032
head -0.892173 0.353761 3.93245
rclavicle -3.48106e-014 2.34193e-014
rhumerus -38.7505 -30.0618 -68.3821
rradius 23.336
rwrist 37.2846
rhand 0.333378 -5.13527
rfingers 7.12502
rthumb 25.9097 -33.3898
lclavicle -3.48106e-014 2.34193e-014
lhumerus -24.0852 9.29059 89.4871
lradius 18.276
lwrist -29.3326
lhand -7.34112 9.3497
lfingers 7.12502
lthumb 18.5427 38.4859
rfemur -30.5574 -5.51046 24.3382
rtibia 30.0455
rfoot -10.8874 10.953
rtoes 10.5018
lfemur 6.01336 -4.03622 -15.4697
ltibia 0
lfoot -4.25192 -12.0819
ltoes 5.72699
483
root -15.264 16.4996 4.5336 39.621 -80.9707 -389.518
lowerback -11.7685 -1.79524 0.565515
upperback 1.26567 -2.68577 2.33548
thorax 8.05261 -1.34814 1.66104
lowerneck -2.92796 0.380954 -4.9937
upperneck -4.25325 0.764322 9.28791
head -0.906886 0.344443 3.9259
rclavicle 1.30142e-015 -3.31473e-014
rhumerus -38.7343 -29.9642 -68.562
rradius 23.3489
rwrist 36.9398
rhand 0.177352 -5.08964
rfingers 7.12502
rthumb 25.7602 -33.3659
lclavicle 1.30142e-015 -3.31473e-014
lhumerus -24.2605 10.177 88.9356
lradius 17.8812
lwrist -30.2355
lhand -7.37048 9.17994
lfingers 7.12502
lthumb 18.5145 38.3189
rfemur -30.6257 -5.55681 24.2959
rtibia 30.075
rfoot -10.8717 11.0008
rtoes 10.6394
lfemur 5.95797 -4.04753 -15.526
ltibia 0
lfoot -4.24374 -12.0826
ltoes 5.72748
484
root -15.2622 16.4974 4.53946 39.5798 -81.0427 -389.589
lowerback -11.7086 -1.72541 0.655613
upperback 1.31375 -2.59658 2.24119
thorax 8.05848 -1.29784 1.52789
lowerneck -2.83627 0.351907 -4.91384
upperneck -4.28896 0.722164 9.19428
head -0.930137 0.32079 3.87689
rclavicle -3.33958e-014 7.35503e-015
rhumerus -38.8165 -30.1606 -68.6264
rradius 23.3748
rwrist 36.9453
rhand 0.0512968 -5.01494
rfingers 7.12502
rthumb 25.6395 -33.3086
lclavicle -3.33958e-014 7.35503e-015
lhumerus -24.4473 10.904 88.3625
lradius 17.5136
lwrist -31.013
lhand -7.3763 9.56782
lfingers 7.12502
lthumb 18.5089 38.7073
rfemur -30.5351 -5.58016 24.2414
rtibia 30.1118
rfoot -10.9136 11.0771
rtoes 10.4463
lfemur 6.09528 -3.99324 -15.5956
ltibia -2.22639e-014
lfoot -4.32429 -12.0117
ltoes 5.28543
485
root -15.2605 16.4964 4.54256 39.043 -81.1354 -389.111
lowerback -11.6974 -1.74395 0.510029
upperback 1.36508 -2.60029 2.23616
thorax 8.11382 -1.30579 1.60378
lowerneck -3.04704 0.377892 -4.85706
upperneck -4.23535 0.755507 9.11497
head -0.877057 0.342424 3.83737
rclavicle 1.12251e-014 -1.49834e-014
rhumerus -38.7665 -30.1685 -68.6846
rradius 23.4106
rwrist 37.0203
rhand 0.124733 -4.97418
rfingers 7.12502
rthumb 25.7098 -33.2577
lclavicle 1.12251e-014 -1.49834e-014
lhumerus -24.6593 11.7623 87.898
lradius 17.1919
lwrist -31.4923
lhand -7.23449 9.90499
lfingers 7.12502
lthumb 18.6453 39.0314
rfemur -30.4889 -5.60023 24.1017
rtibia 30.1406
rfoot -10.966 11.0803
rtoes 9.92849
lfemur 6.1732 -3.97273 -15.7423
ltibia -3.18055e-014
lfoot -4.4362 -11.9574
ltoes 4.70481
486
root -15.258 16.497 4.54324 38.7038 -81.1337 -388.737
lowerback -11.7565 -1.78245 0.368419
upperback 1.37996 -2.63688 2.28441
thorax 8.17398 -1.33133 1.72638
lowerneck -3.28482 0.421692 -4.73685
upperneck -4.14942 0.808652 8.95985
head -0.80944 0.374797 3.75875
rclavicle 2.75099e-014 -1.0871e-014
rhumerus -38.658 -29.9429 -68.8188
rradius 23.4674
rwrist 36.7844
rhand 0.441733 -4.89382
rfingers 7.12502
rthumb 26.0134 -33.1331
lclavicle 2.75099e-014 -1.0871e-014
lhumerus -24.9284 12.4882 87.4891
lradius 16.88
lwrist -31.9044
lhand -7.34078 9.97809
lfingers 7.12502
lthumb 18.543 39.1143
rfemur -30.5428 -5.6162 24.047
rtibia 30.1691
rfoot -11.0002 11.0003
rtoes 9.56975
lfemur 6.11876 -4.00731 -15.7937
ltibia 6.36111e-015
lfoot -4.46825 -11.9288
ltoes 4.39534
487
root -15.2549 16.497 4.54545 38.915 -81.0713 -388.934
lowerback -11.7695 -1.73506 0.42494
upperback 1.36427 -2.58135 2.27848
thorax 8.1598 -1.30163 1.69843
lowerneck -3.2175 0.407607 -4.58079
upperneck -4.23824 0.78637 8.8378
head -0.846373 0.359255 3.68536
rclavicle 8.24956e-015 -3.77691e-015
rhumerus -38.7286 -29.9196 -68.8932
rradius 23.554
rwrist 36.4759
rhand 0.58185 -4.84281
rfingers 7.12502
rthumb 26.1476 -33.0623
lclavicle 8.24956e-015 -3.77691e-015
lhumerus -25.2453 13.082 86.9883
lradius 16.5726
lwrist -32.5181
lhand -7.45908 9.9435
lfingers 7.12502
lthumb 18.4292 39.0905
rfemur -30.5749 -5.65461 24.1151
rtibia 30.1774
rfoot -10.9319 10.9533
rtoes 9.91719
lfemur 6.08197 -4.03532 -15.7313
ltibia 9.54166e-015
lfoot -4.41131 -11.9208
ltoes 4.4669
